<svg id="Layer_1" data-name="Layer 1" xmlns="http://www.w3.org/2000/svg" viewBox="0 0 873.82 205.23"><defs><style>.cls-1{fill:#328eb8;}</style></defs><path class="cls-1" d="M370.28,574c-1.09.69-4.09-.24-9.19-4.87-3.09-2.82-9.83-9-18.52-16.92-12.28-11.23-28.15-25.75-43.13-39.38l-18.31-62.12c17.41-15.84,31.15-28.34,33.08-30.11,3.92-3.56,6.87-5,9-4.42s4,3.46,5.54,8.7l7.52,25.54c9.72,33,25.54,86.72,34.07,115.55v0C371.69,571,371.23,573.38,370.28,574Z" transform="translate(-57.26 -397.88)"/><path class="cls-1" d="M371.4,575.76l-2.68,1.68-37,23.39a14.74,14.74,0,0,1-17.8-1.55l-98.05-89.2,38.62-35.16c12.28,10.85,58.7,53.26,86.66,78.82,8.7,7.92,15.44,14.1,18.52,16.9a27.75,27.75,0,0,0,7,5h0a6.79,6.79,0,0,0,2.76.67A3.46,3.46,0,0,0,371.4,575.76Z" transform="translate(-57.26 -397.88)"/><path class="cls-1" d="M58.32,574c1.09.69,4.08-.24,9.18-4.87,3.1-2.82,9.84-9,18.52-16.92,12.29-11.23,28.15-25.75,43.13-39.38l18.31-62.12-33.08-30.11c-3.92-3.56-6.87-5-9-4.42s-4,3.46-5.55,8.7l-7.52,25.54c-9.71,33-25.53,86.72-34.07,115.55v0C56.9,571,57.37,573.38,58.32,574Z" transform="translate(-57.26 -397.88)"/><path class="cls-1" d="M212.84,435.64l-37.25-33.86a14.75,14.75,0,0,0-13.83-3.31l-53.82,14.79-3.12.87a6.69,6.69,0,0,1,4.57.48A23,23,0,0,1,115.8,419l57.72,52.54Z" transform="translate(-57.26 -397.88)"/><path class="cls-1" d="M320.73,413.2,266.9,398.41a14.75,14.75,0,0,0-13.83,3.31l-38.71,35.19h0c-14.09,12.84-99.23,91.53-126.84,116.77-8.7,7.92-15.45,14.09-18.52,16.9a28,28,0,0,1-7,5h0a6.79,6.79,0,0,1-2.76.67,3.54,3.54,0,0,1-1.94-.52l2.68,1.68L97,600.78a14.76,14.76,0,0,0,17.8-1.56l99.59-90.63c10.48-9.55,24.45-22.28,38.58-35.13.53-.46,1.06-.95,1.58-1.41,27.69-25.22,55.5-50.53,58.33-53.1a22.88,22.88,0,0,1,6.4-4.4,6.69,6.69,0,0,1,4.57-.48Z" transform="translate(-57.26 -397.88)"/><path d="M444.14,448.67V551.46h-21V448.67Z" transform="translate(-57.26 -397.88)"/><path d="M483,506.83v44.63H462.29V474.33h19.52l.34,19.25h-1.24q3-9.66,9.21-14.94t16-5.28a27.26,27.26,0,0,1,14,3.49,23.51,23.51,0,0,1,9.24,10,34.22,34.22,0,0,1,3.28,15.56v49.05h-20.7V506c0-4.79-1.23-8.53-3.69-11.25s-5.88-4.07-10.25-4.07a15.68,15.68,0,0,0-7.76,1.9,13.12,13.12,0,0,0-5.31,5.48A18.54,18.54,0,0,0,483,506.83Z" transform="translate(-57.26 -397.88)"/><path d="M593.16,474.33v15.8H542.8v-15.8Zm-36.77,77.13V468.4q0-8.22,3.28-13.66a20.69,20.69,0,0,1,8.93-8.18,29.15,29.15,0,0,1,12.83-2.72,46.39,46.39,0,0,1,8.94.79q4,.8,5.9,1.34l-3.73,15.6c-.87-.23-1.9-.46-3.07-.69a19.89,19.89,0,0,0-3.83-.35q-4.7,0-6.66,2.24a9.29,9.29,0,0,0-2,6.32v82.37Z" transform="translate(-57.26 -397.88)"/><path d="M616.83,464.26a11.3,11.3,0,0,1-8-3.11,10.2,10.2,0,0,1,0-15,11.92,11.92,0,0,1,16,0,10.12,10.12,0,0,1,0,15A11.4,11.4,0,0,1,616.83,464.26Zm-10.35,87.2V474.33h20.69v77.13Z" transform="translate(-57.26 -397.88)"/><path d="M665.46,506.83v44.63H644.77V474.33h19.52l.35,19.25h-1.25q3-9.66,9.22-14.94t16-5.28a27.25,27.25,0,0,1,14,3.49,23.45,23.45,0,0,1,9.24,10,34.22,34.22,0,0,1,3.28,15.56v49.05h-20.7V506c0-4.79-1.23-8.53-3.69-11.25s-5.88-4.07-10.24-4.07a15.69,15.69,0,0,0-7.77,1.9,13.18,13.18,0,0,0-5.31,5.48A18.66,18.66,0,0,0,665.46,506.83Z" transform="translate(-57.26 -397.88)"/><path d="M743.08,464.26a11.26,11.26,0,0,1-8-3.11,10.18,10.18,0,0,1,0-15,11.25,11.25,0,0,1,8-3.1,11.41,11.41,0,0,1,8,3.1,10.14,10.14,0,0,1,0,15A11.42,11.42,0,0,1,743.08,464.26Zm-10.35,87.2V474.33h20.7v77.13Z" transform="translate(-57.26 -397.88)"/><path d="M809.31,474.33v15.8H763.57v-15.8ZM774.19,456h20.7V528.9c0,2.44.54,4.24,1.62,5.42s2.89,1.76,5.42,1.76a26,26,0,0,0,3.31-.31c1.43-.21,2.51-.41,3.24-.59l3,15.52a40.47,40.47,0,0,1-6.87,1.45,53.4,53.4,0,0,1-6.52.42q-11.58,0-17.73-5.66t-6.14-16.21Z" transform="translate(-57.26 -397.88)"/><path d="M825,578.78l4.76-15.59,2.55.62a18.31,18.31,0,0,0,7.39.62,8.53,8.53,0,0,0,5.21-2.62,10.28,10.28,0,0,0,2.38-6l.55-4.14-29-77.34h22l13,40a148.58,148.58,0,0,1,3.83,15.18q1.49,7.59,3.41,15.87h-4.83q1.88-8.28,3.73-15.9t4.35-15.15l13.52-40h21.73l-32.77,86.24a39.11,39.11,0,0,1-6,10.76,24.62,24.62,0,0,1-9.11,7,31.73,31.73,0,0,1-13.18,2.48,48,48,0,0,1-7.72-.58A27.88,27.88,0,0,1,825,578.78Z" transform="translate(-57.26 -397.88)"/><path d="M919.14,552.77a11.62,11.62,0,0,1-8.48-3.41,12.07,12.07,0,0,1,0-16.9,12.24,12.24,0,0,1,17,0,12.07,12.07,0,0,1,0,16.9A11.62,11.62,0,0,1,919.14,552.77Z" transform="translate(-57.26 -397.88)"/></svg>